{
 "cells": [
  {
   "cell_type": "code",
   "execution_count": 1,
   "id": "bf928fce",
   "metadata": {},
   "outputs": [],
   "source": [
    "import ffmpeg\n",
    "\n",
    "def extract_audio(video_path, output_audio_path):\n",
    "    try:\n",
    "        # Run the FFmpeg command to extract audio\n",
    "        ffmpeg.input(video_path).output(output_audio_path).run()\n",
    "        print(f\"Audio successfully extracted to: {output_audio_path}\")\n",
    "    except ffmpeg.Error as e:\n",
    "        print(f\"An error occurred: {e}\")\n",
    "\n",
    "\n",
    "\n",
    "\n"
   ]
  },
  {
   "cell_type": "code",
   "execution_count": 2,
   "id": "c18d20e3",
   "metadata": {},
   "outputs": [
    {
     "name": "stdout",
     "output_type": "stream",
     "text": [
      "Audio successfully extracted to: output/output_audio.mp3\n"
     ]
    },
    {
     "name": "stderr",
     "output_type": "stream",
     "text": [
      "ffmpeg version 7.1 Copyright (c) 2000-2024 the FFmpeg developers\n",
      "  built with Apple clang version 16.0.0 (clang-1600.0.26.4)\n",
      "  configuration: --prefix=/opt/homebrew/Cellar/ffmpeg/7.1_3 --enable-shared --enable-pthreads --enable-version3 --cc=clang --host-cflags= --host-ldflags='-Wl,-ld_classic' --enable-ffplay --enable-gnutls --enable-gpl --enable-libaom --enable-libaribb24 --enable-libbluray --enable-libdav1d --enable-libharfbuzz --enable-libjxl --enable-libmp3lame --enable-libopus --enable-librav1e --enable-librist --enable-librubberband --enable-libsnappy --enable-libsrt --enable-libssh --enable-libsvtav1 --enable-libtesseract --enable-libtheora --enable-libvidstab --enable-libvmaf --enable-libvorbis --enable-libvpx --enable-libwebp --enable-libx264 --enable-libx265 --enable-libxml2 --enable-libxvid --enable-lzma --enable-libfontconfig --enable-libfreetype --enable-frei0r --enable-libass --enable-libopencore-amrnb --enable-libopencore-amrwb --enable-libopenjpeg --enable-libspeex --enable-libsoxr --enable-libzmq --enable-libzimg --disable-libjack --disable-indev=jack --enable-videotoolbox --enable-audiotoolbox --enable-neon\n",
      "  libavutil      59. 39.100 / 59. 39.100\n",
      "  libavcodec     61. 19.100 / 61. 19.100\n",
      "  libavformat    61.  7.100 / 61.  7.100\n",
      "  libavdevice    61.  3.100 / 61.  3.100\n",
      "  libavfilter    10.  4.100 / 10.  4.100\n",
      "  libswscale      8.  3.100 /  8.  3.100\n",
      "  libswresample   5.  3.100 /  5.  3.100\n",
      "  libpostproc    58.  3.100 / 58.  3.100\n",
      "Input #0, mov,mp4,m4a,3gp,3g2,mj2, from 'input/test.mp4':\n",
      "  Metadata:\n",
      "    major_brand     : mp42\n",
      "    minor_version   : 1\n",
      "    compatible_brands: isommp41mp42\n",
      "    creation_time   : 2024-08-14T15:57:48.000000Z\n",
      "  Duration: 00:00:20.77, start: 0.000000, bitrate: 3865 kb/s\n",
      "  Stream #0:0[0x1](und): Video: h264 (High) (avc1 / 0x31637661), yuv420p(tv, bt709, progressive), 1080x1920, 3608 kb/s, 30 fps, 30 tbr, 600 tbn (default)\n",
      "      Metadata:\n",
      "        creation_time   : 2024-08-14T15:57:48.000000Z\n",
      "        handler_name    : Core Media Video\n",
      "        vendor_id       : [0][0][0][0]\n",
      "  Stream #0:1[0x2](und): Audio: aac (LC) (mp4a / 0x6134706D), 44100 Hz, stereo, fltp, 251 kb/s (default)\n",
      "      Metadata:\n",
      "        creation_time   : 2024-08-14T15:57:48.000000Z\n",
      "        handler_name    : Core Media Audio\n",
      "        vendor_id       : [0][0][0][0]\n",
      "Stream mapping:\n",
      "  Stream #0:1 -> #0:0 (aac (native) -> mp3 (libmp3lame))\n",
      "Press [q] to stop, [?] for help\n",
      "Output #0, mp3, to 'output/output_audio.mp3':\n",
      "  Metadata:\n",
      "    major_brand     : mp42\n",
      "    minor_version   : 1\n",
      "    compatible_brands: isommp41mp42\n",
      "    TSSE            : Lavf61.7.100\n",
      "  Stream #0:0(und): Audio: mp3, 44100 Hz, stereo, fltp (default)\n",
      "      Metadata:\n",
      "        creation_time   : 2024-08-14T15:57:48.000000Z\n",
      "        handler_name    : Core Media Audio\n",
      "        vendor_id       : [0][0][0][0]\n",
      "        encoder         : Lavc61.19.100 libmp3lame\n",
      "[out#0/mp3 @ 0x600000508600] video:0KiB audio:325KiB subtitle:0KiB other streams:0KiB global headers:0KiB muxing overhead: 0.104901%\n",
      "size=     325KiB time=00:00:20.75 bitrate= 128.4kbits/s speed= 111x    \n"
     ]
    }
   ],
   "source": [
    "# Example usage\n",
    "video_path = \"input/test.mp4\"  # Replace with your video file path\n",
    "output_audio_path = \"output/output_audio.mp3\"  # Replace with your desired output file path\n",
    "extract_audio(video_path, output_audio_path)\n"
   ]
  },
  {
   "cell_type": "code",
   "execution_count": null,
   "id": "94274e27",
   "metadata": {},
   "outputs": [],
   "source": []
  }
 ],
 "metadata": {
  "kernelspec": {
   "display_name": "Python 3 (ipykernel)",
   "language": "python",
   "name": "python3"
  },
  "language_info": {
   "codemirror_mode": {
    "name": "ipython",
    "version": 3
   },
   "file_extension": ".py",
   "mimetype": "text/x-python",
   "name": "python",
   "nbconvert_exporter": "python",
   "pygments_lexer": "ipython3",
   "version": "3.9.13"
  }
 },
 "nbformat": 4,
 "nbformat_minor": 5
}
